<svg width="57" height="57" viewBox="0 0 57 57" fill="none" xmlns="http://www.w3.org/2000/svg">
<path d="M51.6562 8.90625H5.34375C4.3585 8.90625 3.5625 9.70225 3.5625 10.6875V46.3125C3.5625 47.2978 4.3585 48.0938 5.34375 48.0938H51.6562C52.6415 48.0938 53.4375 47.2978 53.4375 46.3125V10.6875C53.4375 9.70225 52.6415 8.90625 51.6562 8.90625ZM49.4297 15.0738V44.0859H7.57031V15.0738L6.03398 13.8771L8.22158 11.066L10.604 12.9196H46.4016L48.784 11.066L50.9716 13.8771L49.4297 15.0738ZM46.4016 12.9141L28.5 26.8301L10.5984 12.9141L8.21602 11.0604L6.02842 13.8715L7.56475 15.0683L26.5796 29.8526C27.1264 30.2775 27.7992 30.5081 28.4917 30.5081C29.1841 30.5081 29.8569 30.2775 30.4037 29.8526L49.4297 15.0738L50.966 13.8771L48.7784 11.066L46.4016 12.9141Z" fill="black"/>
</svg>
