<svg width="67" height="65" viewBox="0 0 67 65" fill="none" xmlns="http://www.w3.org/2000/svg">
<path d="M7.1302 21.6667H7.17806L5.29262 20.6556C5.49622 20.392 5.75207 20.1739 6.04392 20.0152L33.4785 5.15185L61.9514 20.5593L60.5924 21.2815C61.7026 22.4467 62.6261 23.7948 63.3057 25.2826L64.5881 24.5941C65.3153 24.2051 65.9238 23.6246 66.3486 22.9147C66.7734 22.2049 66.9985 21.3922 67 20.5636C67.0015 19.735 66.7792 18.9215 66.3569 18.2101C65.9347 17.4987 65.3283 16.9161 64.6025 16.5244L34.6222 0.308148C34.2767 0.120077 33.8904 0.0208369 33.4976 0.019259V0C33.1016 0.000388281 32.7119 0.0996514 32.3635 0.288889L3.77566 15.7781C2.63483 16.3961 1.68149 17.3131 1.01675 18.4321C0.35202 19.551 0.000680096 20.8301 0 22.1337V50.5556C0 53.1095 1.00834 55.5588 2.80321 57.3647C4.59807 59.1706 7.03242 60.1852 9.57074 60.1852H30.4685C29.6814 58.6794 29.1493 57.0522 28.8941 55.3704H9.57074C8.30158 55.3704 7.0844 54.8631 6.18697 53.9601C5.28954 53.0572 4.78537 51.8325 4.78537 50.5556V25.8652L31.2485 40.04C31.9408 40.4109 32.7132 40.6049 33.4976 40.6049C34.282 40.6049 35.0544 40.4109 35.7467 40.04L37.9958 38.8363C37.1521 37.4498 36.5485 35.9291 36.2109 34.3393L33.5024 35.7837L7.12542 21.6667H7.1302ZM59.8171 31.2963C59.8171 33.8502 58.8088 36.2996 57.0139 38.1055C55.2191 39.9114 52.7847 40.9259 50.2464 40.9259C47.7081 40.9259 45.2737 39.9114 43.4789 38.1055C41.684 36.2996 40.6757 33.8502 40.6757 31.2963C40.6757 28.7424 41.684 26.293 43.4789 24.4871C45.2737 22.6812 47.7081 21.6667 50.2464 21.6667C52.7847 21.6667 55.2191 22.6812 57.0139 24.4871C58.8088 26.293 59.8171 28.7424 59.8171 31.2963V31.2963ZM66.9952 52.963C66.9952 58.9574 62.2098 65 50.2464 65C38.283 65 33.4976 58.9815 33.4976 52.963C33.4976 51.0475 34.2539 49.2105 35.6 47.8561C36.9461 46.5017 38.7719 45.7407 40.6757 45.7407H59.8171C61.7209 45.7407 63.5466 46.5017 64.8928 47.8561C66.2389 49.2105 66.9952 51.0475 66.9952 52.963V52.963Z" fill="black"/>
</svg>
