<svg width="82" height="76" viewBox="0 0 82 76" fill="none" xmlns="http://www.w3.org/2000/svg">
<path d="M49.7857 0C47.4556 0 45.2209 0.923899 43.5733 2.56845C41.9256 4.213 41 6.44349 41 8.76923V20.4615C41.0003 22.2748 41.5636 24.0433 42.6126 25.5237C43.6615 27.0041 45.1444 28.1236 46.8571 28.728V35.0769C46.8574 35.6323 47.0161 36.1762 47.3148 36.6448C47.6135 37.1135 48.0398 37.4875 48.5437 37.723C49.0477 37.9586 49.6084 38.0459 50.1603 37.9749C50.7122 37.9038 51.2324 37.6773 51.66 37.3218L61.3829 29.2308H73.2143C75.5444 29.2308 77.7791 28.3069 79.4267 26.6623C81.0744 25.0178 82 22.7873 82 20.4615V8.76923C82 6.44349 81.0744 4.213 79.4267 2.56845C77.7791 0.923899 75.5444 0 73.2143 0H49.7857ZM46.8571 8.76923C46.8571 7.99398 47.1657 7.25049 47.7149 6.7023C48.2641 6.15412 49.009 5.84615 49.7857 5.84615H73.2143C73.991 5.84615 74.7359 6.15412 75.2851 6.7023C75.8343 7.25049 76.1429 7.99398 76.1429 8.76923V20.4615C76.1429 21.2368 75.8343 21.9803 75.2851 22.5285C74.7359 23.0766 73.991 23.3846 73.2143 23.3846H60.3286C59.6436 23.3849 58.9804 23.6249 58.4543 24.0628L52.7143 28.8332V26.3077C52.7143 25.5324 52.4057 24.7889 51.8565 24.2408C51.3073 23.6926 50.5624 23.3846 49.7857 23.3846C49.009 23.3846 48.2641 23.0766 47.7149 22.5285C47.1657 21.9803 46.8571 21.2368 46.8571 20.4615V8.76923ZM11.7143 29.2308C11.7143 26.1298 12.9485 23.1558 15.1453 20.9631C17.3422 18.7703 20.3217 17.5385 23.4286 17.5385C26.5354 17.5385 29.515 18.7703 31.7118 20.9631C33.9087 23.1558 35.1429 26.1298 35.1429 29.2308C35.1429 32.3318 33.9087 35.3057 31.7118 37.4985C29.515 39.6912 26.5354 40.9231 23.4286 40.9231C20.3217 40.9231 17.3422 39.6912 15.1453 37.4985C12.9485 35.3057 11.7143 32.3318 11.7143 29.2308ZM23.4286 23.3846C21.8752 23.3846 20.3854 24.0005 19.2869 25.0969C18.1885 26.1933 17.5714 27.6803 17.5714 29.2308C17.5714 30.7813 18.1885 32.2683 19.2869 33.3646C20.3854 34.461 21.8752 35.0769 23.4286 35.0769C24.982 35.0769 26.4718 34.461 27.5702 33.3646C28.6686 32.2683 29.2857 30.7813 29.2857 29.2308C29.2857 27.6803 28.6686 26.1933 27.5702 25.0969C26.4718 24.0005 24.982 23.3846 23.4286 23.3846ZM8.78571 46.7692H38.0714C40.4015 46.7692 42.6362 47.6931 44.2839 49.3377C45.9315 50.9822 46.8571 53.2127 46.8571 55.5385C46.8571 62.0628 44.1687 67.2892 39.7583 70.8262C35.4181 74.3046 29.5961 76 23.4286 76C17.261 76 11.439 74.3046 7.09886 70.8262C2.69429 67.2892 0 62.0628 0 55.5385C0 53.2127 0.925635 50.9822 2.57328 49.3377C4.22092 47.6931 6.4556 46.7692 8.78571 46.7692V46.7692ZM38.0714 52.6154H8.78571C8.00901 52.6154 7.26412 52.9233 6.7149 53.4715C6.16569 54.0197 5.85714 54.7632 5.85714 55.5385C5.85714 60.3148 7.76071 63.8575 10.7654 66.2662C13.8463 68.7332 18.2743 70.1538 23.4286 70.1538C28.5829 70.1538 33.0109 68.7332 36.0917 66.2662C39.0964 63.8575 41 60.3148 41 55.5385C41 54.7632 40.6915 54.0197 40.1422 53.4715C39.593 52.9233 38.8481 52.6154 38.0714 52.6154Z" fill="black"/>
</svg>
