<svg width="72" height="57" viewBox="0 0 72 57" fill="none" xmlns="http://www.w3.org/2000/svg">
<path d="M69.1875 0H2.5625C1.14512 0 0 1.14512 0 2.5625V53.8125C0 55.2299 1.14512 56.375 2.5625 56.375H69.1875C70.6049 56.375 71.75 55.2299 71.75 53.8125V2.5625C71.75 1.14512 70.6049 0 69.1875 0ZM65.9844 8.87266V50.6094H5.76562V8.87266L3.55547 7.15098L6.70254 3.10703L10.1299 5.77363H61.6281L65.0555 3.10703L68.2025 7.15098L65.9844 8.87266V8.87266ZM61.6281 5.76562L35.875 25.7852L10.1219 5.76562L6.69453 3.09902L3.54746 7.14297L5.75762 8.86465L33.1123 30.1334C33.899 30.7446 34.8668 31.0763 35.863 31.0763C36.8592 31.0763 37.827 30.7446 38.6137 30.1334L65.9844 8.87266L68.1945 7.15098L65.0475 3.10703L61.6281 5.76562Z" fill="black"/>
</svg>
