<svg width="65" height="68" viewBox="0 0 65 68" fill="none" xmlns="http://www.w3.org/2000/svg">
<path fill-rule="evenodd" clip-rule="evenodd" d="M4.92962 22.6137C4.98015 15.426 7.85277 8.54589 12.9284 3.45625L9.42274 0C6.43704 2.96067 4.06718 6.48328 2.44992 10.3646C0.832655 14.2459 0 18.409 0 22.6137C0 26.8185 0.832655 30.9816 2.44992 34.8629C4.06718 38.7442 6.43704 42.2668 9.42274 45.2275L12.9284 41.7713C7.85277 36.6816 4.98015 29.8015 4.92962 22.6137V22.6137ZM10.1634 22.6137C10.1506 25.5255 10.7207 28.4104 11.84 31.0985C12.9593 33.7865 14.6053 36.2234 16.6809 38.2656L20.1865 34.76C18.5637 33.1985 17.2855 31.3149 16.434 29.23C15.5581 27.1428 15.107 24.902 15.107 22.6384C15.107 20.3749 15.5581 18.1341 16.434 16.0469C17.2728 13.9408 18.5522 12.0385 20.1865 10.4675L16.6809 6.96188C14.6142 9.01072 12.9741 11.4489 11.8554 14.1354C10.7367 16.822 10.1616 19.7036 10.1634 22.6137V22.6137ZM47.9352 38.4631L44.4296 34.9575C46.059 33.3775 47.3427 31.4815 48.1821 29.3781C49.0583 27.291 49.5095 25.0501 49.5095 22.7866C49.5095 20.523 49.0583 18.2821 48.1821 16.195C47.3434 14.089 46.0639 12.1866 44.4296 10.6156L47.9352 7.15938C49.9996 9.20981 51.6379 11.6483 52.7559 14.3346C53.8739 17.0208 54.4494 19.9017 54.4494 22.8112C54.4494 25.7208 53.8739 28.6017 52.7559 31.2879C51.6379 33.9742 49.9996 36.4127 47.9352 38.4631V38.4631ZM54.6502 0L51.1446 3.50563C53.6795 6.00052 55.6926 8.97484 57.0668 12.2554C58.4409 15.5359 59.1486 19.057 59.1486 22.6137C59.1486 26.1705 58.4409 29.6916 57.0668 32.9721C55.6926 36.2527 53.6795 39.227 51.1446 41.7219L54.6502 45.2275C57.6359 42.2668 60.0058 38.7442 61.6231 34.8629C63.2403 30.9816 64.073 26.8185 64.073 22.6137C64.073 18.409 63.2403 14.2459 61.6231 10.3646C60.0058 6.48328 57.6359 2.96067 54.6502 0V0ZM39.4674 21.8731C39.6358 23.5774 39.2083 25.2873 38.2577 26.7119C37.8479 27.1291 37.4017 27.5092 36.9246 27.8475L53.9096 66.0144L49.3671 67.9894L45.5652 59.4475H18.2115L14.4096 67.9894L9.86712 66.0144L26.8521 27.8475C25.828 26.8094 25.1285 25.4953 24.8391 24.066C24.5498 22.6368 24.6831 21.1541 25.2227 19.7994C25.8003 18.4363 26.7608 17.2701 27.9877 16.4419C29.0515 15.7324 30.2808 15.3104 31.556 15.217C32.8312 15.1235 34.1089 15.3618 35.2647 15.9086C36.4205 16.4555 37.415 17.2922 38.1515 18.3374C38.888 19.3826 39.3414 20.6007 39.4674 21.8731V21.8731ZM31.5921 20.1944C31.124 20.3046 30.6963 20.5442 30.3577 20.8856C30.0924 21.1991 29.9062 21.5716 29.8146 21.9719C29.667 22.4377 29.667 22.9379 29.8146 23.4037C30.0121 23.8481 30.3182 24.2431 30.7034 24.5394C31.1193 24.7952 31.5976 24.9318 32.0859 24.9344C32.7367 24.9217 33.3573 24.6576 33.8175 24.1973C34.2778 23.737 34.542 23.1164 34.5546 22.4656C34.552 21.9773 34.4154 21.4991 34.1596 21.0831C33.8631 20.6949 33.4721 20.3889 33.024 20.1944C32.5581 20.0467 32.058 20.0467 31.5921 20.1944V20.1944ZM32.7277 30.3162H31.3946L27.099 39.895H36.974L32.7277 30.3162V30.3162ZM43.5902 54.7075L39.1959 44.8325H24.9759L20.5815 54.7075H43.5902Z" fill="black"/>
</svg>
