<svg width="80" height="84" viewBox="0 0 80 84" fill="none" xmlns="http://www.w3.org/2000/svg">
<path d="M78.9436 52.6771L72.7658 47.4267C73.0582 45.6454 73.2091 43.8265 73.2091 42.0076C73.2091 40.1887 73.0582 38.3698 72.7658 36.5885L78.9436 31.3381C79.4096 30.9416 79.7431 30.4134 79.8998 29.8239C80.0565 29.2344 80.0289 28.6115 79.8208 28.0379L79.7359 27.7941C78.0352 23.069 75.4884 18.6888 72.2188 14.8651L72.049 14.6682C71.6524 14.2046 71.1237 13.8713 70.5328 13.7123C69.9418 13.5533 69.3162 13.5761 68.7385 13.7775L61.0705 16.4871C58.241 14.1807 55.0813 12.3618 51.6671 11.0867L50.1863 3.1174C50.0746 2.51776 49.7819 1.9661 49.3473 1.53571C48.9126 1.10532 48.3565 0.816588 47.7529 0.707862L47.4982 0.660983C42.5843 -0.220328 37.4157 -0.220328 32.5018 0.660983L32.2471 0.707862C31.6435 0.816588 31.0874 1.10532 30.6527 1.53571C30.2181 1.9661 29.9254 2.51776 29.8137 3.1174L28.3235 11.1242C24.9365 12.3996 21.7823 14.2175 18.9861 16.5058L11.2615 13.7775C10.684 13.5745 10.0579 13.5509 9.4666 13.71C8.87528 13.8691 8.34665 14.2033 7.95097 14.6682L7.7812 14.8651C4.51543 18.6915 1.96914 23.071 0.264108 27.7941L0.179222 28.0379C-0.245206 29.2098 0.103768 30.5224 1.05637 31.3381L7.30961 36.6447C7.01723 38.4074 6.87575 40.2075 6.87575 41.9982C6.87575 43.7983 7.01723 45.5985 7.30961 47.3517L1.05637 52.6583C0.590405 53.0549 0.256906 53.583 0.100222 54.1725C-0.0564627 54.762 -0.0289083 55.385 0.179222 55.9586L0.264108 56.2023C1.97125 60.9277 4.49896 65.2873 7.7812 69.1314L7.95097 69.3282C8.34762 69.7919 8.87626 70.1251 9.46724 70.2841C10.0582 70.4431 10.6838 70.4204 11.2615 70.2189L18.9861 67.4906C21.7968 69.7877 24.9375 71.6065 28.3235 72.8722L29.8137 80.8791C29.9254 81.4787 30.2181 82.0304 30.6527 82.4607C31.0874 82.8911 31.6435 83.1799 32.2471 83.2886L32.5018 83.3355C37.4609 84.2215 42.5391 84.2215 47.4982 83.3355L47.7529 83.2886C48.3565 83.1799 48.9126 82.8911 49.3473 82.4607C49.7819 82.0304 50.0746 81.4787 50.1863 80.8791L51.6671 72.9097C55.08 71.638 58.2574 69.8132 61.0705 67.5094L68.7385 70.2189C69.316 70.422 69.9421 70.4455 70.5334 70.2864C71.1247 70.1273 71.6534 69.7931 72.049 69.3282L72.2188 69.1314C75.501 65.278 78.0288 60.9277 79.7359 56.2023L79.8208 55.9586C80.2452 54.8054 79.8962 53.4928 78.9436 52.6771V52.6771ZM66.0693 37.6948C66.3051 39.1105 66.4277 40.5638 66.4277 42.017C66.4277 43.4702 66.3051 44.9234 66.0693 46.3391L65.4468 50.0988L72.4923 56.0898C71.4242 58.5358 70.076 60.8513 68.4744 62.9903L59.7218 59.9057L56.7602 62.3246C54.506 64.1623 51.9972 65.6061 49.2808 66.6187L45.6873 67.9594L43.9991 77.0538C41.3353 77.3538 38.6459 77.3538 35.9821 77.0538L34.2938 67.9407L30.7286 66.5812C28.0406 65.5686 25.5412 64.1248 23.3058 62.2965L20.3443 59.8682L11.535 62.9809C9.93164 60.8339 8.59233 58.5181 7.51711 56.0805L14.6381 50.0332L14.025 46.2829C13.7986 44.8859 13.676 43.4421 13.676 42.017C13.676 40.5825 13.7892 39.148 14.025 37.7511L14.6381 34.0008L7.51711 27.9535C8.5829 25.5065 9.93164 23.2 11.535 21.053L20.3443 24.1657L23.3058 21.7374C25.5412 19.9092 28.0406 18.4653 30.7286 17.4528L34.3032 16.1121L35.9915 6.99892C38.6418 6.6989 41.3487 6.6989 44.0085 6.99892L45.6968 16.0933L49.2903 17.434C51.9972 18.4466 54.5154 19.8904 56.7696 21.7281L59.7312 24.147L68.4838 21.0624C70.0872 23.2094 71.4265 25.5252 72.5018 27.9629L65.4563 33.9539L66.0693 37.6948ZM40.0094 24.5783C30.8418 24.5783 23.4096 31.9663 23.4096 41.0794C23.4096 50.1925 30.8418 57.5806 40.0094 57.5806C49.1771 57.5806 56.6093 50.1925 56.6093 41.0794C56.6093 31.9663 49.1771 24.5783 40.0094 24.5783ZM47.4794 48.5049C46.4996 49.4817 45.3353 50.2562 44.0533 50.7839C42.7713 51.3117 41.397 51.5823 40.0094 51.5801C37.1893 51.5801 34.539 50.4832 32.5395 48.5049C31.5569 47.531 30.7778 46.3736 30.2469 45.0992C29.7159 43.8249 29.4437 42.4587 29.4459 41.0794C29.4459 38.2761 30.5494 35.6415 32.5395 33.6539C34.539 31.6663 37.1893 30.5787 40.0094 30.5787C42.8295 30.5787 45.4798 31.6663 47.4794 33.6539C48.4619 34.6278 49.2411 35.7853 49.772 37.0596C50.3029 38.334 50.5751 39.7001 50.573 41.0794C50.573 43.8827 49.4695 46.5173 47.4794 48.5049Z" fill="black"/>
</svg>
