<svg width="126" height="126" viewBox="0 0 126 126" fill="none" xmlns="http://www.w3.org/2000/svg">
<path d="M15.75 31.5V78.75C15.75 82.9272 17.4094 86.9332 20.3631 89.8869C23.3168 92.8406 27.3228 94.5 31.5 94.5H39.375V86.625H31.5C29.4114 86.625 27.4084 85.7953 25.9315 84.3185C24.4547 82.8416 23.625 80.8386 23.625 78.75V43.3125H45.2812C46.2598 43.3119 47.2031 42.9469 47.9272 42.2887L59.7949 31.5H94.5C96.5886 31.5 98.5916 32.3297 100.068 33.8065C101.545 35.2834 102.375 37.2864 102.375 39.375V55.125H106.312C107.659 55.125 108.974 55.2589 110.25 55.5188V39.375C110.25 35.1978 108.591 31.1918 105.637 28.2381C102.683 25.2844 98.6772 23.625 94.5 23.625H56.5031L47.7382 16.6162C47.0413 16.0571 46.1748 15.7516 45.2812 15.75H31.5C27.3228 15.75 23.3168 17.4094 20.3631 20.3631C17.4094 23.3168 15.75 27.3228 15.75 31.5ZM23.625 31.5C23.625 29.4114 24.4547 27.4084 25.9315 25.9315C27.4084 24.4547 29.4114 23.625 31.5 23.625H43.9031L50.7386 29.0981L43.7614 35.4375H23.625V31.5ZM47.3524 73.269L82.7663 93.9251L118.125 74.8834V74.8125C118.125 71.6796 116.88 68.6751 114.665 66.4598C112.45 64.2445 109.445 63 106.312 63H59.0625C56.1972 63.0003 53.4296 64.042 51.2753 65.9312C49.121 67.8204 47.7268 70.4282 47.3524 73.269ZM118.125 83.8215L84.5539 101.902C83.9603 102.223 83.2945 102.385 82.6202 102.374C81.9459 102.363 81.2858 102.179 80.703 101.84L47.25 82.3253V106.312C47.25 109.445 48.4945 112.45 50.7098 114.665C52.9251 116.88 55.9296 118.125 59.0625 118.125H106.312C109.445 118.125 112.45 116.88 114.665 114.665C116.88 112.45 118.125 109.445 118.125 106.312V83.8294V83.8215Z" fill="black"/>
</svg>
