<svg width="72" height="85" viewBox="0 0 72 85" fill="none" xmlns="http://www.w3.org/2000/svg">
<path d="M24 9.34825e-07C20.8174 9.34825e-07 17.7652 1.27933 15.5147 3.55656C13.2643 5.83379 12 8.92237 12 12.1429V26.7204C13.8544 25.6339 15.8867 24.8935 18 24.5346V12.1429C18 10.5326 18.6321 8.98832 19.7574 7.84971C20.8826 6.7111 22.4087 6.07143 24 6.07143H42V21.25C42 23.6654 42.9482 25.9818 44.636 27.6897C46.3239 29.3976 48.6131 30.3571 51 30.3571H66V72.8571C66 74.4674 65.3679 76.0117 64.2426 77.1503C63.1174 78.2889 61.5913 78.9286 60 78.9286H45.792C44.5862 81.2222 42.9472 83.2541 40.968 84.9089L40.86 85H60C63.1826 85 66.2348 83.7207 68.4853 81.4434C70.7357 79.1662 72 76.0776 72 72.8571V26.7993C71.9979 24.3847 71.0483 22.0699 69.36 20.3636L51.882 2.66536C51.0459 1.81981 50.0533 1.14922 48.961 0.691893C47.8687 0.234566 46.6981 -0.000541019 45.516 9.34825e-07H24ZM64.758 24.2857H51C50.2044 24.2857 49.4413 23.9659 48.8787 23.3966C48.3161 22.8273 48 22.0551 48 21.25V7.32822L64.758 24.2857ZM33 42.5C33 45.7205 31.7357 48.8091 29.4853 51.0863C27.2348 53.3635 24.1826 54.6429 21 54.6429C17.8174 54.6429 14.7652 53.3635 12.5147 51.0863C10.2643 48.8091 9 45.7205 9 42.5C9 39.2795 10.2643 36.1909 12.5147 33.9137C14.7652 31.6365 17.8174 30.3571 21 30.3571C24.1826 30.3571 27.2348 31.6365 29.4853 33.9137C31.7357 36.1909 33 39.2795 33 42.5V42.5ZM42 69.8214C42 77.3804 36 85 21 85C6 85 0 77.4107 0 69.8214C0 67.4061 0.948212 65.0896 2.63604 63.3817C4.32387 61.6738 6.61305 60.7143 9 60.7143H33C35.3869 60.7143 37.6761 61.6738 39.364 63.3817C41.0518 65.0896 42 67.4061 42 69.8214V69.8214Z" fill="black"/>
</svg>
