<svg width="74" height="74" viewBox="0 0 74 74" fill="none" xmlns="http://www.w3.org/2000/svg">
<path d="M34.8235 0C35.4008 0 35.9544 0.229306 36.3625 0.637474C36.7707 1.04564 37 1.59923 37 2.17647V4.35294H57.6765C60.8506 4.35525 63.894 5.61717 66.1384 7.86159C68.3828 10.106 69.6448 13.1494 69.6471 16.3235V36.3122C68.5299 34.6318 67.0404 33.2316 65.2941 32.2205V16.3235C65.2947 14.9833 64.9416 13.6666 64.2706 12.5064C63.5995 11.3462 62.6343 10.3836 61.4722 9.71576L61.3634 9.65482C60.2351 9.03012 58.9661 8.70351 57.6765 8.70588H11.9706C9.95026 8.70588 8.01268 9.50845 6.5841 10.937C5.15551 12.3656 4.35294 14.3032 4.35294 16.3235V44.8353C4.4096 46.8177 5.23712 48.6998 6.65961 50.0816C8.0821 51.4635 9.98741 52.2361 11.9706 52.2353H49.0315L49.0707 52.2788C45.9192 52.5618 43.1507 54.1941 41.3529 56.5882H34.8758V56.5969H25.1078L17.0461 68.6894C16.7257 69.1697 16.2277 69.503 15.6616 69.6161C15.0955 69.7291 14.5076 69.6127 14.0274 69.2923C13.5471 68.9719 13.2138 68.4739 13.1007 67.9078C12.9876 67.3416 13.1041 66.7538 13.4245 66.2735L19.8755 56.5969H11.9706C10.3986 56.5969 8.84198 56.2873 7.38964 55.6857C5.9373 55.0842 4.61768 54.2024 3.5061 53.0908C2.39453 51.9793 1.51279 50.6596 0.911207 49.2073C0.309628 47.755 0 46.1984 0 44.6264V16.3235C0 13.1487 1.26118 10.104 3.5061 7.85905C5.75102 5.61412 8.79579 4.35294 11.9706 4.35294H32.6471V2.17647C32.6471 1.59923 32.8764 1.04564 33.2845 0.637474C33.6927 0.229306 34.2463 0 34.8235 0ZM13.0588 19.5882C13.0588 19.011 13.2881 18.4574 13.6963 18.0492C14.1045 17.6411 14.6581 17.4118 15.2353 17.4118H28.2941C28.8714 17.4118 29.4249 17.6411 29.8331 18.0492C30.2413 18.4574 30.4706 19.011 30.4706 19.5882C30.4706 20.1655 30.2413 20.7191 29.8331 21.1272C29.4249 21.5354 28.8714 21.7647 28.2941 21.7647H15.2353C14.6581 21.7647 14.1045 21.5354 13.6963 21.1272C13.2881 20.7191 13.0588 20.1655 13.0588 19.5882ZM15.2353 39.1852C14.6581 39.1852 14.1045 39.4145 13.6963 39.8227C13.2881 40.2308 13.0588 40.7844 13.0588 41.3616C13.0588 41.9389 13.2881 42.4925 13.6963 42.9006C14.1045 43.3088 14.6581 43.5381 15.2353 43.5381H32.6471C33.2243 43.5381 33.7779 43.3088 34.1861 42.9006C34.5942 42.4925 34.8235 41.9389 34.8235 41.3616C34.8235 40.7844 34.5942 40.2308 34.1861 39.8227C33.7779 39.4145 33.2243 39.1852 32.6471 39.1852H15.2353ZM13.0588 30.4793C13.0588 29.9021 13.2881 29.3485 13.6963 28.9403C14.1045 28.5321 14.6581 28.3028 15.2353 28.3028H37C37.5772 28.3028 38.1308 28.5321 38.539 28.9403C38.9472 29.3485 39.1765 29.9021 39.1765 30.4793C39.1765 31.0565 38.9472 31.6101 38.539 32.0183C38.1308 32.4265 37.5772 32.6558 37 32.6558H15.2353C14.6581 32.6558 14.1045 32.4265 13.6963 32.0183C13.2881 31.6101 13.0588 31.0565 13.0588 30.4793ZM67.4706 43.5294C67.4706 45.8384 66.5534 48.0527 64.9207 49.6854C63.288 51.3181 61.0736 52.2353 58.7647 52.2353C56.4558 52.2353 54.2414 51.3181 52.6087 49.6854C50.976 48.0527 50.0588 45.8384 50.0588 43.5294C50.0588 41.2205 50.976 39.0061 52.6087 37.3734C54.2414 35.7408 56.4558 34.8235 58.7647 34.8235C61.0736 34.8235 63.288 35.7408 64.9207 37.3734C66.5534 39.0061 67.4706 41.2205 67.4706 43.5294ZM74 63.1176C74 68.5371 69.6471 74 58.7647 74C47.8824 74 43.5294 68.5588 43.5294 63.1176C43.5294 61.3859 44.2173 59.7252 45.4418 58.5007C46.6663 57.2762 48.3271 56.5882 50.0588 56.5882H67.4706C69.2023 56.5882 70.8631 57.2762 72.0876 58.5007C73.3121 59.7252 74 61.3859 74 63.1176Z" fill="black"/>
</svg>
