<svg width="117" height="117" viewBox="0 0 117 117" fill="none" xmlns="http://www.w3.org/2000/svg">
<path d="M54.1637 60.0576L51.1875 61.6663L14.625 41.9738V36.5625C14.625 34.6231 15.3954 32.7631 16.7668 31.3918C18.1381 30.0204 19.9981 29.25 21.9375 29.25H57.6006L64.8984 21.9375H21.9375C18.0587 21.9375 14.3388 23.4783 11.5961 26.2211C8.85334 28.9638 7.3125 32.6837 7.3125 36.5625V80.4375C7.3125 84.3163 8.85334 88.0362 11.5961 90.7789C14.3388 93.5217 18.0587 95.0625 21.9375 95.0625H80.4375C84.3163 95.0625 88.0362 93.5217 90.7789 90.7789C93.5217 88.0362 95.0625 84.3163 95.0625 80.4375V66.6754L87.75 73.9586V80.4375C87.75 82.3769 86.9796 84.2369 85.6082 85.6082C84.2369 86.9796 82.3769 87.75 80.4375 87.75H21.9375C19.9981 87.75 18.1381 86.9796 16.7668 85.6082C15.3954 84.2369 14.625 82.3769 14.625 80.4375V50.2808L49.4544 69.03C49.9871 69.3167 50.5826 69.4668 51.1875 69.4668C51.7924 69.4668 52.3879 69.3167 52.9206 69.03L54.8218 68.0063C54.0367 65.4342 53.8123 62.7237 54.1637 60.0576ZM82.0901 25.4183L61.0886 46.4563C60.7518 46.806 60.3488 47.0851 59.903 47.2773C59.4572 47.4695 58.9776 47.571 58.4921 47.5759C58.0067 47.5808 57.5251 47.489 57.0755 47.3058C56.6259 47.1226 56.2174 46.8517 55.8736 46.5089C55.5298 46.1661 55.2578 45.7582 55.0733 45.3092C54.8888 44.8601 54.7956 44.3788 54.7991 43.8934C54.8026 43.4079 54.9028 42.928 55.0938 42.4816C55.2847 42.0353 55.5627 41.6315 55.9114 41.2937L76.9129 20.2483C80.5124 16.6478 85.3948 14.6247 90.4859 14.624C95.5771 14.6233 100.46 16.6451 104.061 20.2447C107.661 23.8442 109.684 28.7266 109.685 33.8177C109.686 38.9089 107.664 43.7918 104.064 47.3923L80.7885 70.5729C79.7288 71.6321 78.4709 72.4722 77.0865 73.0453C75.7022 73.6184 74.2185 73.9131 72.7202 73.9128C69.6943 73.9121 66.7926 72.7094 64.6535 70.5693C62.5143 68.4292 61.3129 65.5269 61.3136 62.501C61.3143 59.4751 62.517 56.5734 64.6571 54.4342L85.1687 33.9739C85.5065 33.6252 85.9103 33.3472 86.3566 33.1563C86.803 32.9653 87.2829 32.8652 87.7683 32.8616C88.2538 32.8581 88.7351 32.9513 89.1842 33.1358C89.6332 33.3203 90.0411 33.5923 90.3839 33.9361C90.7267 34.2799 90.9976 34.6884 91.1808 35.138C91.364 35.5876 91.4558 36.0692 91.4509 36.5546C91.446 37.0401 91.3445 37.5197 91.1523 37.9655C90.96 38.4113 90.681 38.8143 90.3313 39.1511L69.8344 59.6042C69.4541 59.9845 69.1525 60.4359 68.9466 60.9328C68.7408 61.4296 68.6349 61.9622 68.6349 62.4999C68.6349 63.0377 68.7408 63.5703 68.9466 64.0671C69.1525 64.564 69.4541 65.0154 69.8344 65.3957C70.6024 66.1637 71.644 66.5952 72.7301 66.5952C73.2679 66.5952 73.8004 66.4892 74.2973 66.2834C74.7941 66.0776 75.2456 65.776 75.6259 65.3957L98.9016 42.2151C101.046 39.9698 102.226 36.9746 102.19 33.8702C102.154 30.7658 100.904 27.7988 98.7086 25.604C96.5129 23.4091 93.5453 22.1608 90.4409 22.1261C87.3365 22.0914 84.3417 23.2731 82.0974 25.4183H82.0901Z" fill="black"/>
</svg>
